<!-- Generated by IcoMoon.io -->
<svg version="1.1" xmlns="http://www.w3.org/2000/svg" width="32" height="32" viewBox="0 0 32 32">
<path d="M30.368 15.952c0.192 0.864-0.352 1.712-1.232 1.904-0.016 0-0.048 0-0.064 0h-14.944c-0.64-0.16-1.136-0.64-1.296-1.28-0.192-0.864 0.352-1.712 1.232-1.904 0.016 0 0.048 0 0.064 0h14.944c0.64 0.16 1.136 0.656 1.28 1.28zM14.128 9.872h14.944c0.88-0.16 1.456-0.992 1.296-1.856 0-0.016 0-0.048 0-0.064-0.16-0.64-0.656-1.12-1.296-1.28h-14.944c-0.88 0.16-1.456 0.992-1.296 1.856 0 0.016 0 0.048 0 0.064 0.16 0.64 0.656 1.12 1.296 1.28zM29.072 22.672h-14.944c-0.88 0.16-1.456 0.992-1.296 1.856 0 0.016 0 0.048 0 0.064 0.16 0.64 0.656 1.12 1.296 1.28h14.944c0.88-0.16 1.456-0.992 1.296-1.856 0-0.016 0-0.048 0-0.064-0.16-0.64-0.656-1.12-1.296-1.28zM7.712 6c-0.368-0.368-0.976-0.368-1.36 0l-2.528 2.528-0.608-0.608c-0.368-0.368-0.976-0.368-1.36 0s-0.368 0.976 0 1.36l1.28 1.28c0.192 0.192 0.432 0.288 0.672 0.288s0.496-0.096 0.672-0.288l3.2-3.2c0.368-0.368 0.368-0.976 0-1.36zM7.712 14c-0.368-0.368-0.976-0.368-1.36 0l-2.528 2.528-0.608-0.608c-0.368-0.368-0.976-0.368-1.36 0s-0.368 0.976 0 1.36l1.28 1.28c0.192 0.192 0.432 0.288 0.672 0.288s0.496-0.096 0.672-0.288l3.2-3.2c0.368-0.368 0.368-0.976 0-1.36zM4.4 22.272c-1.104 0-2 0.896-2 2s0.896 2 2 2 2-0.896 2-2-0.896-2-2-2z"></path>
</svg>
