<!-- Generated by IcoMoon.io -->
<svg version="1.1" xmlns="http://www.w3.org/2000/svg" width="32" height="32" viewBox="0 0 32 32">
<path d="M17.088 22.968c0.273 0.266 0.442 0.637 0.442 1.048 0 0.009-0 0.019-0 0.028l0-0.001c-0.003 0.422-0.176 0.803-0.454 1.078l-0 0c-0.282 0.265-0.663 0.428-1.082 0.428s-0.8-0.163-1.083-0.429l0.001 0.001c-0.28-0.274-0.455-0.655-0.458-1.077v-0.001c0.002-0.412 0.153-0.788 0.402-1.078l-0.002 0.002c0.289-0.287 0.687-0.464 1.127-0.464 0.007 0 0.013 0 0.020 0h-0.001c0.020-0.001 0.044-0.002 0.068-0.002 0.409 0 0.776 0.18 1.025 0.466l0.001 0.002zM32 16c-0.010 8.839-7.178 16-16.018 16-3.066 0-5.931-0.861-8.366-2.356l0.070 0.040-4.424 1.168c-0.135 0.038-0.29 0.060-0.45 0.060-0.48 0-0.914-0.196-1.227-0.512l-0-0c-0.318-0.318-0.515-0.758-0.515-1.244 0-0.158 0.021-0.312 0.060-0.458l-0.003 0.012 1.174-4.418c-1.442-2.363-2.295-5.221-2.295-8.279 0-4.421 1.784-8.425 4.672-11.332l-0.001 0.001c2.896-2.902 6.901-4.697 11.324-4.697 8.837 0 16 7.163 16 16 0 0.005 0 0.010 0 0.015v-0.001zM24.842 24.84c2.259-2.263 3.657-5.388 3.657-8.838 0-6.909-5.601-12.51-12.51-12.51s-12.51 5.601-12.51 12.51c0 2.618 0.804 5.048 2.179 7.057l-0.028-0.043c0.191 0.276 0.305 0.617 0.305 0.986 0 0.157-0.021 0.31-0.060 0.454l0.003-0.012-0.6 2.264 2.71-0.656c0 0 0 0 0 0 0.365 0 0.704 0.113 0.984 0.306l-0.006-0.004c1.968 1.349 4.401 2.154 7.021 2.154 3.458 0 6.588-1.402 8.855-3.668v0zM15.876 7.164c-0.012-0-0.027-0-0.042-0-3.049 0-5.522 2.467-5.532 5.513v0.001c0 0.841 0.682 1.523 1.523 1.523s1.523-0.682 1.523-1.523v0c-0-0.005-0-0.010-0-0.015 0-0.678 0.275-1.291 0.72-1.735l0-0c0.409-0.445 0.994-0.723 1.644-0.723 0.055 0 0.109 0.002 0.163 0.006l-0.007-0c1.315 0.048 2.37 1.099 2.422 2.409l0 0.005c0 0.014 0 0.031 0 0.048 0 0.969-0.557 1.808-1.368 2.214l-0.014 0.006c-1.541 0.706-2.596 2.228-2.614 3.998l-0 0.002v1.14c0 0.842 0.682 1.524 1.524 1.524s1.524-0.682 1.524-1.524v0-1.14c0-0.556 0.334-1.035 0.811-1.247l0.009-0.003c1.884-0.9 3.162-2.79 3.162-4.978 0-3.019-2.433-5.47-5.445-5.5l-0.003-0z"></path>
</svg>
