<!-- Generated by IcoMoon.io -->
<svg version="1.1" xmlns="http://www.w3.org/2000/svg" width="32" height="32" viewBox="0 0 32 32">
<path d="M10.56 11.52c0.96 0 1.76 0.32 2.56 0.8 0.32 0.16 0.64 0.48 0.96 0.8 0.96 1.12 1.44 2.4 1.44 3.68 0 0.96-0.32 1.92-0.8 2.88-0.32 0.48-0.64 0.96-1.12 1.28l-1.44 1.28 1.76 0.8c1.28 0.48 2.24 1.12 3.040 2.24 0.48 0.48 0.8 1.28 1.12 2.080s-0.32 1.6-1.12 1.6h-12.48c-0.8 0-1.44-0.8-1.12-1.6 0.32-0.64 0.64-1.44 1.12-2.080 0.8-0.96 1.76-1.76 2.88-2.24l1.76-0.64-1.44-1.12c-0.48-0.32-0.8-0.8-1.12-1.28-0.48-0.8-0.8-1.92-0.8-2.88 0-1.28 0.48-2.72 1.44-3.68 0.8-1.44 2.080-1.92 3.36-1.92zM10.56 8.32c-2.24 0-4.32 0.96-5.76 2.56s-2.4 3.68-2.24 5.92c0 1.44 0.48 3.040 1.28 4.48-0.8 0.48-1.44 1.12-1.92 1.92-0.48 0.64-0.96 1.6-1.44 2.72-0.64 1.28-0.48 2.88 0.32 4 0.8 1.28 2.24 1.92 3.68 1.92h12.32c1.44 0 2.88-0.64 3.68-1.92 0.8-1.12 0.96-2.72 0.48-4-0.48-1.12-0.96-2.080-1.44-2.88-0.64-0.8-1.28-1.28-1.92-1.76 0.8-1.44 1.28-3.040 1.28-4.48 0-2.080-0.8-4.16-2.24-5.76-0.64-0.64-1.12-1.12-1.76-1.44-1.28-0.8-2.72-1.28-4.32-1.28v0z"></path>
<path d="M32.32 1.6c0-0.96-0.64-1.6-1.6-1.6v0 0h-27.040c-0.96 0-1.6 0.64-1.6 1.6s0.64 1.6 1.6 1.6h1.44v3.2c0 0.96 0.64 1.6 1.6 1.6s1.6-0.64 1.6-1.6v-3.2h19.2v14.4h-6.56c-0.96 0-1.6 0.64-1.6 1.6s0.64 1.6 1.6 1.6h1.28l4 10.24c0.32 0.64 0.8 0.96 1.44 0.96 0.16 0 0.32 0 0.64-0.16 0.8-0.32 1.28-1.28 0.96-2.080l-3.52-8.96h2.4c0.8 0 1.6-0.32 2.080-0.96 0.8-0.96 0.64-2.080 0.48-2.56v-14.080c0.96 0 1.6-0.64 1.6-1.6z"></path>
</svg>
