<?xml version="1.0" standalone="no"?>
<svg xmlns="http://www.w3.org/2000/svg" viewBox="0 0 30.027 26.568"><defs/><path class="a" d="M29.9,12.789,22.888.5A1,1,0,0,0,22.02,0H8.006a1,1,0,0,0-.868.5L.131,12.789a1,1,0,0,0,0,.991L7.138,26.064a1,1,0,0,0,.868.5H22.02a1,1,0,0,0,.868-.5L29.9,13.78A1,1,0,0,0,29.9,12.789ZM21.439,24.568H8.588L2.151,13.284,8.588,2H21.439l6.437,11.284Zm-9.8-8.234L9.587,14.108a2.754,2.754,0,0,0,.182-.962,2.86,2.86,0,1,0-1.514,2.468L9.906,17.4V23.46h2V17.012A1,1,0,0,0,11.641,16.334Zm-4.7-2.384a.8.8,0,1,1,.826-.8A.817.817,0,0,1,6.943,13.95Zm16.141-3.939a2.818,2.818,0,0,0-2.826,2.8,2.742,2.742,0,0,0,.157.881l-.7.758V8.544a2.826,2.826,0,1,0-2,0V23.46h2V17.4l1.99-2.156a2.805,2.805,0,1,0,1.379-5.236ZM18.715,6.734a.8.8,0,1,1,.827-.8A.816.816,0,0,1,18.715,6.734Zm4.369,6.884a.8.8,0,1,1,.826-.8A.816.816,0,0,1,23.084,13.618Zm-7.617-2.555L13.206,7.59a2.761,2.761,0,0,0,.561-1.659,2.826,2.826,0,1,0-2.826,2.8,2.885,2.885,0,0,0,.584-.061l2.105,3.233V23.46h2V11.609A1,1,0,0,0,15.467,11.063ZM10.941,6.734a.8.8,0,1,1,.826-.8A.815.815,0,0,1,10.941,6.734Z"/></svg>