<!-- Generated by IcoMoon.io -->
<svg version="1.1" xmlns="http://www.w3.org/2000/svg" width="32" height="32" viewBox="0 0 32 32">
<title>happy-emoji</title>
<path fill="#36c700" d="M16 0.64c-8.448 0-15.36 6.912-15.36 15.36s6.912 15.36 15.36 15.36c8.448 0 15.36-6.912 15.36-15.36s-6.912-15.36-15.36-15.36zM16 28.288c-6.758 0-12.288-5.53-12.288-12.288s5.53-12.288 12.288-12.288c6.758 0 12.288 5.53 12.288 12.288s-5.53 12.288-12.288 12.288zM11.392 14.771c1.69 0 3.072-1.382 3.072-3.072s-1.382-3.072-3.072-3.072c-1.69 0-3.072 1.382-3.072 3.072s1.382 3.072 3.072 3.072zM20.608 14.771c1.69 0 3.072-1.382 3.072-3.072s-1.382-3.072-3.072-3.072c-1.69 0-3.072 1.382-3.072 3.072s1.382 3.072 3.072 3.072zM25.37 18.15c0-0.768-0.768-1.536-1.536-1.536s-1.382 0.614-1.536 1.382c-1.075 3.072-3.379 4.608-6.298 4.608s-5.376-1.69-6.451-4.762c-0.154-0.614-0.768-1.229-1.536-1.229-0.922 0-1.536 0.768-1.536 1.536 0 0.307 0.154 0.614 0.307 0.768 1.382 3.994 4.762 6.758 9.216 6.758 4.301 0 7.834-2.765 9.062-6.758 0.307-0.154 0.307-0.461 0.307-0.768z"></path>
</svg>
