<?xml version="1.0" encoding="UTF-8"?>
<svg id="Layer_2" data-name="Layer 2" xmlns="http://www.w3.org/2000/svg" viewBox="0 0 491.28 79.19">
  <defs>
    <style>
      .cls-1 {
        letter-spacing: -.02em;
      }

      .cls-2 {
        fill: #3694fd;
      }

      .cls-3 {
        font-family: BeVietnamPro-Bold, 'Be Vietnam Pro';
        font-size: 60.38px;
        font-weight: 700;
      }
    </style>
  </defs>
  <g id="Layer_1" data-name="Layer 1">
    <path class="cls-2" d="M48.31,4.37c-3.36-.21-6.13,2.56-5.92,5.92.18,2.77,2.42,5.02,5.19,5.19,3.36.21,6.13-2.56,5.92-5.92-.18-2.77-2.42-5.02-5.19-5.19"/>
    <path d="M36.14,7.86h-8.96c-.3,0-.53.24-.53.53v26.27c0,.18-.24.25-.33.09L10.82,8.12c-.1-.16-.27-.27-.46-.27H.53c-.29,0-.53.24-.53.53v43.61c0,.29.24.53.53.53h8.96c.29,0,.53-.24.53-.53v-26.16c0-.18.24-.25.33-.09l15.5,26.52c.1.16.27.26.46.26h9.82c.3,0,.53-.24.53-.53V8.39c0-.3-.24-.53-.53-.53"/>
    <path d="M51.92,18.42c-1.25.27-2.58.41-3.97.41s-2.72-.15-3.97-.41c-.33-.07-.65.18-.65.52v33.06c0,.29.24.53.53.53h8.16c.29,0,.53-.24.53-.53V18.94c0-.34-.31-.59-.65-.52"/>
    <path d="M131.2,44.35h-18.65c-.1,0-.18-.08-.18-.18v-9.71c0-.1.08-.18.18-.18h15.22c.29,0,.53-.24.53-.53v-7.11c0-.29-.24-.53-.53-.53h-15.22c-.1,0-.18-.08-.18-.18v-9.71c0-.1.08-.18.18-.18h18.65c.29,0,.53-.24.53-.53v-7.11c0-.3-.24-.53-.53-.53h-28.32c-.3,0-.53.24-.53.53v43.61c0,.29.24.53.53.53h28.32c.29,0,.53-.24.53-.53v-7.11c0-.29-.24-.53-.53-.53"/>
    <path d="M96.12,35.98h-9.47c-.26,0-.48.18-.52.43-.44,2.41-1.26,4.33-2.47,5.77-1.36,1.62-3.29,2.42-5.79,2.42-1.92,0-3.57-.59-4.96-1.76-1.38-1.17-2.45-2.83-3.2-4.97-.75-2.14-1.12-4.68-1.12-7.61s.35-5.37,1.07-7.55c.71-2.18,1.77-3.88,3.17-5.1,1.4-1.22,3.1-1.82,5.1-1.82,2.27,0,4.11.76,5.53,2.27,1.24,1.32,2.11,3.1,2.59,5.32.05.24.27.42.52.42h9.43c.34,0,.59-.3.53-.63-.94-5.13-2.86-9.1-5.78-11.9-3.05-2.94-7.33-4.4-12.82-4.4-4,0-7.47.97-10.43,2.89-2.96,1.93-5.23,4.65-6.83,8.15-1.59,3.5-2.39,7.62-2.39,12.36s.84,9.09,2.51,12.55c1.67,3.46,3.98,6.11,6.91,7.96,2.94,1.85,6.29,2.77,10.05,2.77s6.78-.69,9.39-2.08c2.61-1.38,4.72-3.39,6.34-6.01,1.51-2.46,2.57-5.41,3.17-8.84.06-.33-.19-.63-.53-.63"/>
    <rect x="159.24" y="7.86" width="1.78" height="44.68"/>
    <text class="cls-3" transform="translate(184.63 52.53) scale(.9 1)"><tspan x="0" y="0">In</tspan><tspan class="cls-1" x="53.62" y="0">f</tspan><tspan x="77.23" y="0">orm QA</tspan></text>
  </g>
</svg>