<?xml version="1.0" encoding="UTF-8"?>
<svg id="Layer_2" xmlns="http://www.w3.org/2000/svg" version="1.1" viewBox="0 0 465.5 58.3">
  <!-- Generator: Adobe Illustrator 29.8.1, SVG Export Plug-In . SVG Version: 2.1.1 Build 2)  -->
  <defs>
    <style>
      .st0 {
        fill: #fff;
      }

      .st1 {
        isolation: isolate;
      }

      .st2 {
        fill: #3694fd;
      }
    </style>
  </defs>
  <g id="Layer_1">
    <path class="st2" d="M48.3,4.4c-3.4-.2-6.1,2.6-5.9,5.9.2,2.8,2.4,5,5.2,5.2,3.4.2,6.1-2.6,5.9-5.9-.2-2.8-2.4-5-5.2-5.2"/>
    <path class="st0" d="M36.1,7.9h-9c-.3,0-.5.2-.5.5v26.3c0,.2-.2.2-.3,0L10.8,8.1c-.1-.2-.3-.3-.5-.3H.5c-.3,0-.5.2-.5.5v43.6c0,.3.2.5.5.5h9c.3,0,.5-.2.5-.5v-26.2c0-.2.2-.2.3,0l15.5,26.5c.1.2.3.3.5.3h9.8c.3,0,.5-.2.5-.5V8.4c0-.3-.2-.5-.5-.5"/>
    <path class="st0" d="M51.9,18.4c-1.2.3-2.6.4-4,.4s-2.7-.1-4-.4c-.3,0-.7.2-.7.5v33.1c0,.3.2.5.5.5h8.2c.3,0,.5-.2.5-.5V18.9c0-.3-.3-.6-.7-.5"/>
    <path class="st0" d="M131.2,44.3h-18.7c0,0-.2,0-.2-.2v-9.7c0,0,0-.2.2-.2h15.2c.3,0,.5-.2.5-.5v-7.1c0-.3-.2-.5-.5-.5h-15.2c0,0-.2,0-.2-.2v-9.7c0-.1,0-.2.2-.2h18.6c.3,0,.5-.2.5-.5v-7.1c0-.3-.2-.5-.5-.5h-28.3c-.3,0-.5.2-.5.5v43.6c0,.3.2.5.5.5h28.3c.3,0,.5-.2.5-.5v-7.1c0-.3-.2-.5-.5-.5"/>
    <path class="st0" d="M96.1,36h-9.5c-.3,0-.5.2-.5.4-.4,2.4-1.3,4.3-2.5,5.8-1.4,1.6-3.3,2.4-5.8,2.4s-3.6-.6-5-1.8c-1.4-1.2-2.4-2.8-3.2-5-.8-2.1-1.1-4.7-1.1-7.6s.3-5.4,1.1-7.5c.7-2.2,1.8-3.9,3.2-5.1s3.1-1.8,5.1-1.8,4.1.8,5.5,2.3c1.2,1.3,2.1,3.1,2.6,5.3,0,.2.3.4.5.4h9.4c.3,0,.6-.3.5-.6-.9-5.1-2.9-9.1-5.8-11.9-3.1-2.9-7.3-4.4-12.8-4.4s-7.5,1-10.4,2.9c-3,1.9-5.2,4.6-6.8,8.1-1.6,3.5-2.4,7.6-2.4,12.4s.8,9.1,2.5,12.5,4,6.1,6.9,8c2.9,1.8,6.3,2.8,10.1,2.8s6.8-.7,9.4-2.1c2.6-1.4,4.7-3.4,6.3-6,1.5-2.5,2.6-5.4,3.2-8.8,0-.3-.2-.6-.5-.6"/>
    <rect class="st0" x="159.2" y="7.9" width="1.8" height="44.7"/>
    <g class="st1">
      <g class="st1">
        <path class="st0" d="M188.3,52.5V7.8h8.4v44.7h-8.4Z"/>
        <path class="st0" d="M203.5,52.5V20.5h8.3v4.6h.3c.3-.6.8-1.4,1.4-2.2.6-.8,1.5-1.5,2.6-2.1,1.1-.6,2.4-.9,4.1-.9s4.1.6,5.5,1.7c1.4,1.1,2.4,2.6,3.1,4.4.7,1.8,1,3.7,1,5.6v20.8h-8.3v-19.3c0-1.5-.4-2.9-1.1-4-.7-1.2-1.9-1.8-3.6-1.8s-2.2.3-2.9,1c-.7.6-1.2,1.5-1.6,2.5-.3,1-.5,2.1-.5,3.2v18.4h-8.3Z"/>
      </g>
      <g class="st1">
        <path class="st0" d="M239.4,52.5v-24.7h-4.6v-7.3h4.6v-2.5c0-1.2.1-2.4.4-3.8.3-1.4.8-2.7,1.5-3.9.7-1.2,1.8-2.3,3.1-3,1.3-.8,3.1-1.2,5.2-1.2s2.5.2,4,.5v6.5c-.9-.2-1.5-.2-2-.2-1.5,0-2.5.5-3.1,1.4-.6,1-.9,2.2-.9,3.7v2.5h5.8v7.3h-5.8v24.7h-8.3Z"/>
      </g>
      <g class="st1">
        <path class="st0" d="M272,53.1c-3.2,0-6-.8-8.2-2.3-2.2-1.5-4-3.6-5.1-6.1-1.2-2.5-1.8-5.2-1.8-8.2s.6-5.7,1.8-8.2c1.2-2.5,2.9-4.5,5.1-6.1,2.2-1.5,5-2.3,8.2-2.3s6,.8,8.2,2.3c2.2,1.6,4,3.6,5.1,6.1,1.2,2.5,1.8,5.2,1.8,8.2s-.6,5.7-1.8,8.2-2.9,4.5-5.1,6.1-5,2.3-8.2,2.3ZM272,45.6c1.4,0,2.7-.4,3.7-1.3s1.8-2,2.3-3.4c.5-1.4.8-2.9.8-4.5s-.3-3.2-.8-4.5c-.5-1.4-1.3-2.5-2.3-3.3s-2.2-1.3-3.7-1.3-2.7.4-3.7,1.3c-1,.8-1.8,2-2.3,3.3-.5,1.4-.8,2.9-.8,4.5s.3,3.1.8,4.5c.5,1.4,1.3,2.5,2.3,3.4,1,.8,2.2,1.3,3.7,1.3Z"/>
        <path class="st0" d="M293,52.5V20.5h8.2v4.6h.3c.3-.8.8-1.7,1.4-2.5.6-.8,1.4-1.5,2.4-2,1-.5,2.3-.8,3.9-.8s1.7.1,2.6.3v9.1c-1.1-.2-2-.4-2.8-.4-2.6,0-4.5.8-5.8,2.3-1.3,1.6-1.9,4.1-1.9,7.6v13.7h-8.3Z"/>
        <path class="st0" d="M316.4,52.5V20.5h8.3v4.3h.3c.6-1.2,1.5-2.3,2.8-3.4,1.2-1.1,2.9-1.6,5.1-1.6s3.9.6,5.2,1.7c1.3,1.1,2.3,2.5,2.9,4.2h.1c.5-.9,1.1-1.8,1.9-2.7.8-.9,1.8-1.6,2.9-2.2,1.2-.6,2.6-.9,4.2-.9s3.6.5,4.9,1.5c1.3,1,2.3,2.3,2.9,4,.6,1.6,1,3.4,1,5.2v21.9h-8.3v-19.6c0-1.6-.4-2.9-1.1-3.9-.7-1-1.8-1.5-3.2-1.5s-2,.3-2.6.9c-.7.6-1.2,1.4-1.5,2.3-.3.9-.5,1.9-.5,2.9v18.9h-8.3v-19.6c0-1.6-.4-2.9-1.1-3.9-.7-1-1.8-1.5-3.2-1.5s-2,.3-2.6.9c-.7.6-1.2,1.4-1.5,2.3-.3.9-.5,1.9-.5,2.9v18.9h-8.3Z"/>
        <path class="st0" d="M396.9,53.1c-3.3,0-6.3-.7-8.8-2-2.5-1.3-4.7-3.1-6.4-5.3-1.7-2.2-3-4.7-3.9-7.4-.9-2.7-1.3-5.5-1.3-8.4s.4-5.6,1.3-8.4c.9-2.7,2.1-5.2,3.9-7.3,1.7-2.2,3.8-3.9,6.4-5.2,2.5-1.3,5.5-2,8.8-2s6.3.7,8.9,2c2.5,1.3,4.7,3,6.4,5.2,1.7,2.2,3,4.6,3.8,7.3.9,2.7,1.3,5.5,1.3,8.4s-.4,5.5-1.2,8.2c-.8,2.7-2,5.1-3.6,7.2l5.6,6.9h-8.9l-1.8-2.2c-1.4.9-3,1.6-4.8,2.1-1.7.5-3.6.8-5.6.8ZM396.9,44.7c1.8,0,3.4-.4,4.8-1.1l-6.1-7.5,5.2-4.8,5.8,7.2c1.3-2.5,1.9-5.2,1.9-8.3s-.4-4.8-1.3-7c-.9-2.2-2.2-4-3.9-5.4-1.7-1.4-3.9-2.1-6.4-2.1s-4.7.7-6.4,2.1c-1.7,1.4-3,3.2-3.9,5.4-.9,2.2-1.3,4.5-1.3,7s.4,4.8,1.3,7,2.2,4.1,3.9,5.5,3.8,2.1,6.4,2.1Z"/>
        <path class="st0" d="M420.9,52.5l13.7-44.7h11.1l13.7,44.7h-8.8l-2.6-8.8h-15.8l-2.6,8.8h-8.8ZM434.7,35.7h11.1l-5.5-18.7-5.5,18.7Z"/>
      </g>
    </g>
  </g>
</svg>