<!-- Generated by IcoMoon.io -->
<svg id="Neutral" version="1.1" xmlns="http://www.w3.org/2000/svg" viewBox="0 0 32 32">
    <path fill="#009eda" d="M14.336 11.536c0 1.767-1.433 3.2-3.2 3.2s-3.2-1.433-3.2-3.2c0-1.767 1.433-3.2 3.2-3.2s3.2 1.433 3.2 3.2z"></path><path fill="#009eda"  d="M16 0c-8.837 0-16 7.163-16 16s7.163 16 16 16c8.837 0 16-7.163 16-16v0c0-8.837-7.163-16-16-16v0zM16 28.8c-7.069 0-12.8-5.731-12.8-12.8s5.731-12.8 12.8-12.8c7.069 0 12.8 5.731 12.8 12.8v0c0 7.069-5.731 12.8-12.8 12.8v0z"></path><path fill="#009eda"  d="M20.8 8.336c-1.767 0-3.2 1.433-3.2 3.2s1.433 3.2 3.2 3.2c1.767 0 3.2-1.433 3.2-3.2v0c0-1.767-1.433-3.2-3.2-3.2v0z"></path><path fill="#009eda" d="M22 20.608h-12.096c-0.99 0-1.792 0.802-1.792 1.792s0.802 1.792 1.792 1.792v0h12.096c0.99 0 1.792-0.802 1.792-1.792s-0.802-1.792-1.792-1.792v0z"></path>
</svg>

