<?xml version="1.0" encoding="UTF-8"?>
<svg id="Layer_2" data-name="Layer 2" xmlns="http://www.w3.org/2000/svg" viewBox="0 0 429.7 49.18">
  <defs>
    <style>
      .cls-1 {
        fill: #fff;
      }

      .cls-2 {
        fill: #3694fd;
      }
    </style>
  </defs>
  <g id="Layer_1" data-name="Layer 1">
    <path class="cls-2" d="M48.31.01c-3.36-.21-6.13,2.56-5.92,5.92.18,2.77,2.42,5.02,5.19,5.19,3.36.21,6.13-2.56,5.92-5.92-.18-2.77-2.42-5.02-5.19-5.19"/>
    <path class="cls-1" d="M36.14,3.5h-8.96c-.3,0-.53.24-.53.53v26.27c0,.18-.24.25-.33.09L10.82,3.76c-.1-.16-.27-.27-.46-.27H.53c-.29,0-.53.24-.53.53v43.61c0,.29.24.53.53.53h8.96c.29,0,.53-.24.53-.53v-26.16c0-.18.24-.25.33-.09l15.5,26.52c.1.16.27.26.46.26h9.82c.3,0,.53-.24.53-.53V4.03c0-.3-.24-.53-.53-.53"/>
    <path class="cls-1" d="M51.92,14.06c-1.25.27-2.58.41-3.97.41s-2.72-.15-3.97-.41c-.33-.07-.65.18-.65.52v33.06c0,.29.24.53.53.53h8.16c.29,0,.53-.24.53-.53V14.58c0-.34-.31-.59-.65-.52"/>
    <path class="cls-1" d="M131.2,39.99h-18.65c-.1,0-.18-.08-.18-.18v-9.71c0-.1.08-.18.18-.18h15.22c.29,0,.53-.24.53-.53v-7.11c0-.29-.24-.53-.53-.53h-15.22c-.1,0-.18-.08-.18-.18v-9.71c0-.1.08-.18.18-.18h18.65c.29,0,.53-.24.53-.53v-7.11c0-.3-.24-.53-.53-.53h-28.32c-.3,0-.53.24-.53.53v43.61c0,.29.24.53.53.53h28.32c.29,0,.53-.24.53-.53v-7.11c0-.29-.24-.53-.53-.53"/>
    <path class="cls-1" d="M96.12,31.62h-9.47c-.26,0-.48.18-.52.43-.44,2.41-1.26,4.33-2.47,5.77-1.36,1.62-3.29,2.42-5.79,2.42-1.92,0-3.57-.59-4.96-1.76-1.38-1.17-2.45-2.83-3.2-4.97-.75-2.14-1.12-4.68-1.12-7.61s.35-5.37,1.07-7.55c.71-2.18,1.77-3.88,3.17-5.1,1.4-1.22,3.1-1.82,5.1-1.82,2.27,0,4.11.76,5.53,2.27,1.24,1.32,2.11,3.1,2.59,5.32.05.24.27.42.52.42h9.43c.34,0,.59-.3.53-.63-.94-5.13-2.86-9.1-5.78-11.9-3.05-2.94-7.33-4.4-12.82-4.4-4,0-7.47.97-10.43,2.89-2.96,1.93-5.23,4.65-6.83,8.15-1.59,3.5-2.39,7.62-2.39,12.36s.84,9.09,2.51,12.55c1.67,3.46,3.98,6.11,6.91,7.96,2.94,1.85,6.29,2.77,10.05,2.77s6.78-.69,9.39-2.08c2.61-1.38,4.72-3.39,6.34-6.01,1.51-2.46,2.57-5.41,3.17-8.84.06-.33-.19-.63-.53-.63"/>
    <rect class="cls-1" x="159.24" y="3.5" width="1.78" height="44.68"/>
    <path class="cls-2" d="M424.49.01c-3.36-.21-6.13,2.56-5.92,5.92.18,2.77,2.42,5.02,5.19,5.19,3.36.21,6.13-2.56,5.92-5.92-.18-2.77-2.42-5.02-5.19-5.19"/>
    <g>
      <path class="cls-1" d="M188.32,48.18V3.49h8.37v44.68h-8.37Z"/>
      <path class="cls-1" d="M203.54,48.18V16.17h8.26v4.59h.27c.33-.64.81-1.37,1.44-2.17.63-.8,1.49-1.51,2.55-2.11,1.07-.6,2.44-.91,4.1-.91,2.25,0,4.08.57,5.49,1.72,1.41,1.15,2.45,2.62,3.1,4.41.65,1.79.98,3.67.98,5.65v20.83h-8.26v-19.26c0-1.53-.37-2.88-1.11-4.05-.74-1.17-1.93-1.75-3.56-1.75-1.23,0-2.21.32-2.94.97-.73.64-1.25,1.47-1.58,2.48-.33,1.01-.49,2.07-.49,3.2v18.42h-8.26Z"/>
      <path class="cls-1" d="M239.41,48.18v-24.7h-4.56v-7.31h4.56v-2.54c0-1.17.14-2.43.43-3.8.29-1.37.81-2.68,1.55-3.92.74-1.25,1.78-2.26,3.12-3.05,1.34-.79,3.06-1.18,5.16-1.18,1.16,0,2.48.18,3.97.54v6.46c-.87-.16-1.54-.24-2.01-.24-1.49,0-2.52.48-3.1,1.45-.58.97-.87,2.21-.87,3.74v2.54h5.81v7.31h-5.81v24.7h-8.26Z"/>
      <path class="cls-1" d="M272.01,48.78c-3.23,0-5.96-.77-8.21-2.32-2.25-1.55-3.96-3.58-5.14-6.1-1.18-2.52-1.77-5.24-1.77-8.18s.59-5.67,1.77-8.18c1.18-2.52,2.89-4.55,5.14-6.1,2.25-1.55,4.98-2.33,8.21-2.33s5.96.78,8.21,2.33c2.25,1.55,3.96,3.58,5.14,6.1,1.18,2.52,1.77,5.24,1.77,8.18s-.59,5.67-1.77,8.18c-1.18,2.52-2.89,4.55-5.14,6.1-2.25,1.55-4.98,2.32-8.21,2.32ZM272.01,41.29c1.45,0,2.67-.42,3.67-1.27,1-.84,1.77-1.96,2.31-3.35s.81-2.89.81-4.5-.27-3.16-.81-4.53c-.54-1.37-1.31-2.48-2.31-3.32-1-.85-2.22-1.27-3.67-1.27s-2.68.42-3.7,1.27c-1.01.84-1.78,1.95-2.31,3.32-.53,1.37-.79,2.88-.79,4.53s.26,3.11.79,4.5c.52,1.39,1.29,2.51,2.31,3.35,1.01.85,2.25,1.27,3.7,1.27Z"/>
      <path class="cls-1" d="M293.05,48.18V16.17h8.21v4.65h.27c.33-.84.78-1.67,1.36-2.48.58-.8,1.38-1.47,2.39-1.99,1.01-.52,2.32-.79,3.91-.79.8,0,1.67.1,2.61.3v9.06c-1.05-.24-1.99-.36-2.83-.36-2.57,0-4.49.78-5.76,2.33-1.27,1.55-1.9,4.08-1.9,7.58v13.71h-8.26Z"/>
      <path class="cls-1" d="M316.36,48.18V16.17h8.26v4.35h.27c.62-1.17,1.54-2.28,2.77-3.35,1.23-1.07,2.92-1.6,5.05-1.6s3.92.56,5.24,1.69c1.32,1.13,2.29,2.52,2.91,4.17h.11c.47-.93,1.1-1.84,1.88-2.75.78-.91,1.76-1.65,2.93-2.23,1.18-.58,2.56-.88,4.16-.88,1.99,0,3.64.5,4.95,1.51,1.3,1.01,2.27,2.32,2.91,3.96.63,1.63.95,3.37.95,5.22v21.92h-8.26v-19.62c0-1.57-.35-2.87-1.06-3.89-.71-1.03-1.77-1.54-3.18-1.54-1.09,0-1.97.3-2.64.91-.67.6-1.16,1.38-1.47,2.32-.31.95-.46,1.92-.46,2.93v18.9h-8.26v-19.62c0-1.57-.35-2.87-1.06-3.89s-1.77-1.54-3.18-1.54c-1.09,0-1.97.3-2.64.91-.67.6-1.16,1.38-1.47,2.32-.31.95-.46,1.92-.46,2.93v18.9h-8.26Z"/>
      <path class="cls-1" d="M376.03,48.18l13.7-44.68h11.14l13.7,44.68h-8.8l-2.55-8.76h-15.76l-2.61,8.76h-8.8ZM389.78,31.33h11.09l-5.54-18.66-5.54,18.66Z"/>
    </g>
    <path class="cls-1" d="M427.76,14.07c-1.15.25-2.37.38-3.63.38s-2.49-.13-3.63-.38c-.3-.07-.59.17-.59.48v33.13c0,.27.22.49.49.49h7.47c.27,0,.49-.22.49-.49V14.55c0-.31-.29-.54-.59-.48"/>
  </g>
</svg>