<!-- Generated by IcoMoon.io -->
<svg version="1.1" xmlns="http://www.w3.org/2000/svg" width="32" height="32" viewBox="0 0 32 32">
<title>sad-emoji</title>
<path fill="#f54c26" d="M11.132 14.732c0.633 0 1.252-0.188 1.778-0.539s0.936-0.851 1.178-1.436c0.242-0.585 0.306-1.228 0.182-1.849s-0.428-1.191-0.876-1.638c-0.448-0.448-1.018-0.752-1.638-0.876s-1.264-0.060-1.849 0.182c-0.585 0.242-1.085 0.652-1.436 1.179s-0.539 1.145-0.539 1.778c0 0.849 0.337 1.663 0.937 2.263s1.414 0.937 2.263 0.937zM16 18c-1.496-0.033-2.979 0.287-4.329 0.934s-2.528 1.603-3.439 2.79h0.028c-0.167 0.229-0.262 0.503-0.272 0.786 0.010 0.398 0.178 0.775 0.467 1.049s0.674 0.423 1.071 0.413c0.261-0.001 0.517-0.068 0.745-0.195s0.419-0.31 0.557-0.531c0.647-0.732 1.442-1.318 2.333-1.72s1.856-0.609 2.833-0.608c0.951-0.029 1.898 0.153 2.77 0.534s1.65 0.95 2.276 1.666c0.127 0.263 0.326 0.484 0.574 0.637s0.535 0.233 0.826 0.229c0.398 0.010 0.785-0.138 1.074-0.412s0.458-0.652 0.47-1.050c-0.004-0.221-0.061-0.438-0.165-0.633s-0.253-0.363-0.435-0.489c-0.913-1.066-2.045-1.922-3.32-2.509s-2.661-0.891-4.064-0.891zM20.8 8.324c-0.633 0-1.252 0.188-1.778 0.539s-0.936 0.851-1.179 1.436c-0.242 0.585-0.306 1.228-0.182 1.849s0.428 1.191 0.876 1.638c0.448 0.448 1.018 0.752 1.638 0.876s1.264 0.060 1.849-0.182c0.585-0.242 1.085-0.652 1.436-1.179s0.539-1.145 0.539-1.778c-0.002-0.847-0.34-1.659-0.94-2.258s-1.412-0.934-2.26-0.934v-0.008zM16 0c-3.165 0-6.258 0.938-8.889 2.697s-4.682 4.257-5.893 7.181c-1.211 2.924-1.528 6.141-0.911 9.244s2.141 5.955 4.379 8.192c2.238 2.238 5.089 3.761 8.192 4.379s6.321 0.301 9.244-0.91c2.924-1.211 5.422-3.262 7.18-5.893s2.697-5.725 2.697-8.889c0-4.243-1.686-8.313-4.686-11.314s-7.070-4.686-11.314-4.686zM16 28.8c-2.532 0-5.006-0.751-7.111-2.157s-3.746-3.406-4.714-5.744c-0.969-2.339-1.222-4.913-0.728-7.396s1.713-4.764 3.503-6.554c1.79-1.79 4.071-3.009 6.554-3.503s5.057-0.24 7.395 0.728c2.339 0.969 4.338 2.609 5.744 4.714s2.157 4.58 2.157 7.111c-0.004 3.394-1.353 6.647-3.753 9.047s-5.653 3.75-9.047 3.753z"></path>
</svg>
