<?xml version="1.0" encoding="utf-8"?>
<!-- Generator: Adobe Illustrator 25.2.1, SVG Export Plug-In . SVG Version: 6.00 Build 0)  -->
<svg version="1.1" id="Layer_1" xmlns="http://www.w3.org/2000/svg" xmlns:xlink="http://www.w3.org/1999/xlink" x="0px" y="0px"
	 viewBox="0 0 40 40" enable-background="new 0 0 40 40" xml:space="preserve">
<path d="M37.66,2.66h-5.28V1.83c0-1.01-0.82-1.83-1.83-1.83c-1.01,0-1.83,0.82-1.83,1.83v0.84h-3.8V1.83
	c0-1.01-0.82-1.83-1.83-1.83s-1.83,0.82-1.83,1.83v0.84h-3.8V1.83c0-1.01-0.82-1.83-1.83-1.83s-1.83,0.82-1.83,1.83v0.84H8.55
	c-1.01,0-1.83,0.82-1.83,1.83V27.7c0,3.36,2.73,6.09,6.09,6.09H33.4c3.36,0,6.09-2.73,6.09-6.09V4.49
	C39.48,3.48,38.67,2.66,37.66,2.66z M35.83,27.7c0,1.34-1.09,2.43-2.43,2.43H12.81c-1.34,0-2.43-1.09-2.43-2.43V6.31h3.45v0.84
	c0,1.01,0.82,1.83,1.83,1.83s1.83-0.82,1.83-1.83V6.31h3.8v0.84c0,1.01,0.82,1.83,1.83,1.83s1.83-0.82,1.83-1.83V6.31h3.8v0.84
	c0,1.01,0.82,1.83,1.83,1.83c1.01,0,1.83-0.82,1.83-1.83V6.31h3.45V27.7z M27.19,36.35H12.7c-4.7,0-8.53-3.83-8.53-8.53V10.7
	c0-1.01-0.82-1.83-1.83-1.83S0.52,9.69,0.52,10.7v17.12C0.52,34.54,5.98,40,12.7,40h14.49c1.01,0,1.83-0.82,1.83-1.83
	C29.01,37.17,28.19,36.35,27.19,36.35z M30.67,13.5H15.54c-1.01,0-1.83,0.82-1.83,1.83s0.82,1.83,1.83,1.83h15.13
	c1.01,0,1.83-0.82,1.83-1.83S31.68,13.5,30.67,13.5z M27.17,20.01H15.54c-1.01,0-1.83,0.82-1.83,1.83c0,1.01,0.82,1.83,1.83,1.83
	h11.63c1.01,0,1.83-0.82,1.83-1.83C28.99,20.83,28.18,20.01,27.17,20.01z"/>
</svg>
